<?xml version="1.0" encoding="UTF-8"?>
<!DOCTYPE svg PUBLIC "-//W3C//DTD SVG 1.1//EN" "http://www.w3.org/Graphics/SVG/1.1/DTD/svg11.dtd">
<!-- Creator: CorelDRAW -->
<svg xmlns="http://www.w3.org/2000/svg" xml:space="preserve" width="36.8519in" height="15.4913in" version="1.1" style="shape-rendering:geometricPrecision; text-rendering:geometricPrecision; image-rendering:optimizeQuality; fill-rule:evenodd; clip-rule:evenodd"
viewBox="0 0 1595.95 670.88"
 xmlns:xlink="http://www.w3.org/1999/xlink"
 xmlns:xodm="http://www.corel.com/coreldraw/odm/2003">
 <defs>
  <style type="text/css">
   <![CDATA[
    .fil0 {fill:#375965}
    .fil1 {fill:#E1C045}
    .fil4 {fill:#375965;fill-rule:nonzero}
    .fil3 {fill:#385A66;fill-rule:nonzero}
    .fil2 {fill:#E1C045;fill-rule:nonzero}
   ]]>
  </style>
 </defs>
 <g id="Layer_x0020_1">
  <metadata id="CorelCorpID_0Corel-Layer"/>
  <path class="fil0" d="M180.09 4.69c-1.17,38.21 -0.48,77.53 -0.55,115.84l-0.67 291.68c-0.01,10.7 -1.06,50.32 0.72,57.84 50.82,3.89 87.03,12.62 127.71,-11.67 4.66,-2.78 6.49,-5.18 10.32,-7.92 3.77,-2.7 6.31,-5.18 9.65,-8.56 16.94,-17.2 36.74,-45.06 39.09,-71.15l-83.23 4.4c-1,-23.46 -0.94,-259.25 0.53,-263.01 3.92,-4.4 33.63,7.86 36.75,9.25 19.41,8.65 41.9,23.71 57.86,36.97 7.94,6.6 18.24,15.06 25.05,23.25 29,34.86 50.55,74.46 57.17,133.49 8.77,78.29 -30.44,158.9 -85.34,200.2 -12.99,9.77 -29.37,18.78 -44.15,26.96 -4.98,2.75 -11.82,5.7 -15.56,8.94l-0.14 87.07c0.01,22.35 -3.76,22.82 19.34,16.03 26.74,-7.86 65.93,-29.69 87.76,-44.37 18.62,-12.52 33.8,-26.7 47.73,-40.67 100.16,-100.49 127.17,-263.41 56.37,-391.4 -7.71,-13.93 -24.34,-40.35 -35.24,-52.27 -6.71,-7.33 -13.48,-16.65 -20.4,-23.36 -2.11,-2.05 -3.82,-3.28 -5.71,-5.23l-11.18 -10.71c-2.27,-1.96 -3.69,-3.7 -6.08,-5.74 -33.54,-28.73 -68.29,-48.45 -112.34,-63.57 -20.76,-7.12 -48.87,-14.41 -72.6,-15.72 -20.12,-1.1 -66.75,-3.37 -82.85,3.43z"/>
  <path class="fil1" d="M282.13 663.79l0.88 -101.68c-26.7,-3.4 -37.88,10.85 -100.53,-1.92 -14.79,-3.01 -28.86,-7.12 -41.86,-12.85 -8.73,-3.85 -29.82,-14.43 -35.45,-19.36l-1.06 -500.28c-21.68,-2.71 -82.03,46.05 -100.02,60.92 -5.09,4.21 -4,4.52 -3.93,12.77 1.19,155.35 0.91,313.96 0.52,469.48 -0.02,8.9 6.09,14.71 12.3,19.31 30.54,22.61 26.31,19.39 58.71,38.81 25.56,15.32 61.08,27.9 94.89,34.51 22.55,4.41 98.42,13.99 115.57,0.29z"/>
  <polygon class="fil2" points="845.13,396.48 845.13,458.84 629.68,458.84 629.68,136.37 702.27,136.37 702.27,396.48 "/>
  <path id="_1" class="fil2" d="M969.84 399.74c3.41,0.31 7.37,0.54 11.87,0.7 4.5,0.16 9.85,0.23 16.05,0.23 36.3,0 63.21,-9.15 80.73,-27.45 17.53,-18.3 26.29,-43.59 26.29,-75.85 0,-33.81 -8.38,-59.41 -25.13,-76.78 -16.75,-17.37 -43.28,-26.06 -79.57,-26.06 -4.96,0 -10.08,0.08 -15.36,0.23 -5.27,0.15 -10.24,0.54 -14.89,1.16l0 203.81zm209.86 -102.37c0,27.92 -4.34,52.27 -13.03,73.06 -8.69,20.78 -21.02,38 -36.99,51.65 -15.98,13.65 -35.44,23.89 -58.4,30.71 -22.96,6.82 -48.7,10.24 -77.24,10.24 -13.03,0 -28.23,-0.54 -45.6,-1.63 -17.37,-1.09 -34.43,-3.33 -51.19,-6.75l0 -314.1c16.75,-3.1 34.2,-5.2 52.35,-6.28 18.15,-1.09 33.74,-1.63 46.77,-1.63 27.61,0 52.66,3.1 75.15,9.31 22.49,6.2 41.8,15.98 57.93,29.32 16.13,13.34 28.54,30.4 37.23,51.19 8.69,20.78 13.03,45.76 13.03,74.92z"/>
  <path class="fil3" d="M629.68 523.47c0,-2.17 0.79,-4.06 2.34,-5.63 1.58,-1.55 3.48,-2.34 5.73,-2.34 2.17,0 4.06,0.79 5.63,2.39 1.55,1.58 2.34,3.48 2.34,5.73 0,2.2 -0.76,4.08 -2.31,5.61 -1.53,1.55 -3.44,2.31 -5.66,2.31 -2.24,0 -4.15,-0.76 -5.73,-2.31 -1.55,-1.53 -2.34,-3.46 -2.34,-5.75zm2.58 94.83l0 -64 11.02 0 0 64 -11.02 0z"/>
  <path id="_1_0" class="fil3" d="M672.7 618.3l0 -64 10.74 0 0 9.88c2.74,-4.1 6.06,-7.16 9.93,-9.16 3.87,-2 8.35,-3.01 13.41,-3.01 7.56,0 13.46,2 17.68,6.01 4.25,4.01 6.37,9.59 6.37,16.73l0 43.55 -11.17 0 0 -37.68c0,-6.49 -1.36,-11.29 -4.08,-14.44 -2.74,-3.15 -6.94,-4.73 -12.62,-4.73 -3.27,0 -6.25,0.6 -8.93,1.79 -2.67,1.19 -4.89,2.86 -6.68,5.06 -1.34,1.67 -2.31,3.6 -2.89,5.73 -0.6,2.15 -0.88,5.87 -0.88,11.19l0 33.08 -10.88 0z"/>
  <path id="_2" class="fil3" d="M758.81 618.3l0 -64 10.74 0 0 9.88c2.74,-4.1 6.06,-7.16 9.93,-9.16 3.87,-2 8.35,-3.01 13.41,-3.01 7.56,0 13.46,2 17.68,6.01 4.25,4.01 6.37,9.59 6.37,16.73l0 43.55 -11.17 0 0 -37.68c0,-6.49 -1.36,-11.29 -4.08,-14.44 -2.74,-3.15 -6.94,-4.73 -12.62,-4.73 -3.27,0 -6.25,0.6 -8.93,1.79 -2.67,1.19 -4.89,2.86 -6.68,5.06 -1.34,1.67 -2.31,3.6 -2.89,5.73 -0.6,2.15 -0.88,5.87 -0.88,11.19l0 33.08 -10.88 0z"/>
  <path id="_3" class="fil3" d="M851.36 586.52c0,6.75 2.27,12.48 6.78,17.16 4.53,4.7 10.02,7.04 16.44,7.04 6.4,0 11.84,-2.34 16.32,-7.04 4.46,-4.68 6.71,-10.4 6.71,-17.16 0,-6.75 -2.24,-12.48 -6.71,-17.16 -4.49,-4.7 -9.93,-7.04 -16.32,-7.04 -6.47,0 -11.96,2.34 -16.47,7.04 -4.51,4.68 -6.75,10.4 -6.75,17.16zm-11.6 -0.05c0,-4.7 0.86,-9.14 2.58,-13.32 1.74,-4.15 4.25,-7.88 7.56,-11.14 3.32,-3.27 7.06,-5.75 11.26,-7.45 4.2,-1.69 8.66,-2.55 13.44,-2.55 4.65,0 9.07,0.86 13.24,2.58 4.18,1.74 7.95,4.25 11.36,7.56 3.32,3.22 5.82,6.9 7.56,11.07 1.72,4.18 2.58,8.59 2.58,13.24 0,4.68 -0.86,9.07 -2.58,13.2 -1.74,4.13 -4.25,7.8 -7.56,11 -3.41,3.36 -7.21,5.92 -11.43,7.71 -4.22,1.77 -8.61,2.65 -13.17,2.65 -4.73,0 -9.19,-0.88 -13.41,-2.63 -4.22,-1.74 -7.97,-4.25 -11.29,-7.52 -3.32,-3.36 -5.82,-7.09 -7.56,-11.19 -1.72,-4.1 -2.58,-8.5 -2.58,-13.22z"/>
  <polygon id="_4" class="fil3" points="953.78,622.31 922.11,554.3 934.42,554.3 953.66,599 972.94,554.3 985.25,554.3 "/>
  <path id="_5" class="fil3" d="M1052.32 586.95c0,-7.23 -1.98,-13.05 -5.92,-17.44 -3.94,-4.41 -9.07,-6.61 -15.42,-6.61 -6.56,0 -11.69,2.03 -15.37,6.09 -3.7,4.06 -5.54,9.71 -5.54,16.99 0,7.73 1.86,13.7 5.56,17.87 3.7,4.2 8.97,6.3 15.77,6.3 6.51,0 11.65,-2.03 15.34,-6.11 3.7,-4.08 5.56,-9.78 5.56,-17.09zm10.6 -32.65l0 64 -10.6 0 0 -11.6c-2.55,4.65 -5.85,8.21 -9.83,10.64 -3.99,2.46 -8.45,3.68 -13.39,3.68 -9.16,0 -16.59,-3.15 -22.19,-9.47 -5.61,-6.32 -8.42,-14.68 -8.42,-25.08 0,-10.52 2.72,-18.9 8.19,-25.13 5.44,-6.23 12.74,-9.33 21.88,-9.33 5.35,0 10,1.19 13.94,3.6 3.94,2.41 7.14,6.01 9.55,10.76l0 -12.08 10.88 0z"/>
  <polygon id="_6" class="fil3" points="1092.85,563.32 1081.11,563.32 1081.11,554.3 1092.85,554.3 1092.85,528.53 1104.02,528.53 1104.02,554.3 1115.76,554.3 1115.76,563.32 1104.02,563.32 1104.02,618.3 1092.85,618.3 "/>
  <path id="_7" class="fil3" d="M1132.53 523.47c0,-2.17 0.79,-4.06 2.34,-5.63 1.58,-1.55 3.48,-2.34 5.73,-2.34 2.17,0 4.06,0.79 5.63,2.39 1.55,1.58 2.34,3.48 2.34,5.73 0,2.2 -0.76,4.08 -2.31,5.61 -1.53,1.55 -3.44,2.31 -5.66,2.31 -2.24,0 -4.15,-0.76 -5.73,-2.31 -1.55,-1.53 -2.34,-3.46 -2.34,-5.75zm2.58 94.83l0 -64 11.02 0 0 64 -11.02 0z"/>
  <path id="_8" class="fil3" d="M1181.98 586.52c0,6.75 2.27,12.48 6.78,17.16 4.53,4.7 10.02,7.04 16.44,7.04 6.4,0 11.84,-2.34 16.32,-7.04 4.46,-4.68 6.71,-10.4 6.71,-17.16 0,-6.75 -2.24,-12.48 -6.71,-17.16 -4.49,-4.7 -9.93,-7.04 -16.32,-7.04 -6.47,0 -11.96,2.34 -16.47,7.04 -4.51,4.68 -6.75,10.4 -6.75,17.16zm-11.6 -0.05c0,-4.7 0.86,-9.14 2.58,-13.32 1.74,-4.15 4.25,-7.88 7.56,-11.14 3.32,-3.27 7.06,-5.75 11.26,-7.45 4.2,-1.69 8.66,-2.55 13.44,-2.55 4.65,0 9.07,0.86 13.24,2.58 4.18,1.74 7.95,4.25 11.36,7.56 3.32,3.22 5.82,6.9 7.56,11.07 1.72,4.18 2.58,8.59 2.58,13.24 0,4.68 -0.86,9.07 -2.58,13.2 -1.74,4.13 -4.25,7.8 -7.56,11 -3.41,3.36 -7.21,5.92 -11.43,7.71 -4.22,1.77 -8.61,2.65 -13.17,2.65 -4.73,0 -9.19,-0.88 -13.41,-2.63 -4.22,-1.74 -7.97,-4.25 -11.29,-7.52 -3.32,-3.36 -5.82,-7.09 -7.56,-11.19 -1.72,-4.1 -2.58,-8.5 -2.58,-13.22z"/>
  <path id="_9" class="fil3" d="M1263.32 618.3l0 -64 10.74 0 0 9.88c2.74,-4.1 6.06,-7.16 9.93,-9.16 3.87,-2 8.35,-3.01 13.41,-3.01 7.56,0 13.46,2 17.68,6.01 4.25,4.01 6.37,9.59 6.37,16.73l0 43.55 -11.17 0 0 -37.68c0,-6.49 -1.36,-11.29 -4.08,-14.44 -2.74,-3.15 -6.94,-4.73 -12.62,-4.73 -3.27,0 -6.25,0.6 -8.93,1.79 -2.67,1.19 -4.89,2.86 -6.68,5.06 -1.34,1.67 -2.31,3.6 -2.89,5.73 -0.6,2.15 -0.88,5.87 -0.88,11.19l0 33.08 -10.88 0z"/>
  <path id="_10" class="fil3" d="M1342.68 607.54l9.38 -6.28c1.77,3.39 3.99,5.92 6.71,7.61 2.7,1.69 5.89,2.55 9.57,2.55 3.58,0 6.49,-0.88 8.71,-2.65 2.22,-1.77 3.32,-4.1 3.32,-6.99 0,-2.22 -0.76,-4.08 -2.27,-5.58 -1.53,-1.48 -4.13,-2.86 -7.8,-4.1l-1.81 -0.64c-15.56,-5.35 -23.34,-12.08 -23.34,-20.14 0,-5.68 2.1,-10.33 6.28,-13.91 4.2,-3.6 9.64,-5.39 16.35,-5.39 5.56,0 10.31,1.1 14.27,3.32 3.96,2.22 6.8,5.35 8.52,9.4l-8.85 5.46c-1.31,-2.94 -3.25,-5.2 -5.78,-6.78 -2.55,-1.6 -5.49,-2.39 -8.85,-2.39 -3.22,0 -5.85,0.91 -7.88,2.7 -2.03,1.79 -3.03,4.08 -3.03,6.9 0,3.91 4.25,7.21 12.72,9.86 1.6,0.52 2.86,0.91 3.79,1.19 6.92,2.24 11.76,4.8 14.49,7.66 2.72,2.86 4.08,6.63 4.08,11.36 0,6.04 -2.15,10.95 -6.47,14.7 -4.3,3.75 -9.93,5.63 -16.87,5.63 -5.97,0 -11.03,-1.12 -15.2,-3.36 -4.15,-2.22 -7.52,-5.61 -10.02,-10.12z"/>
  <path class="fil4" d="M1253 459.64c-10.53,-20.54 -21.21,-44.57 -32.04,-72.09 -10.83,-27.52 -21.05,-57.51 -30.76,-89.96l48.68 0c2.05,8.01 4.47,16.69 7.29,26.03 2.77,9.35 5.65,18.79 8.63,28.34 3.03,9.55 6.01,18.84 8.99,27.88 2.98,9.04 5.96,17.25 8.83,24.65 2.67,-7.39 5.55,-15.61 8.68,-24.65 3.08,-9.04 6.11,-18.33 9.09,-27.88 2.98,-9.55 5.91,-19 8.68,-28.34 2.77,-9.35 5.19,-18.02 7.24,-26.03l47.5 0c-9.7,32.45 -19.92,62.44 -30.76,89.96 -10.78,27.52 -21.46,51.55 -31.99,72.09l-38.05 0z"/>
  <path id="_1_1" class="fil4" d="M1424.04 459.64l-45.91 0 0 -162.05 45.91 0 0 162.05zm4.31 -208.88c0,8.42 -2.72,15.04 -8.16,19.87 -5.44,4.83 -11.86,7.24 -19.26,7.24 -7.39,0 -13.81,-2.41 -19.26,-7.24 -5.44,-4.83 -8.16,-11.45 -8.16,-19.87 0,-8.42 2.72,-15.04 8.16,-19.87 5.44,-4.83 11.86,-7.24 19.26,-7.24 7.39,0 13.81,2.41 19.26,7.24 5.44,4.83 8.16,11.45 8.16,19.87z"/>
  <path id="_2_2" class="fil4" d="M1529.1 427.6c4.52,0 8.83,-0.1 12.94,-0.31 4.11,-0.21 7.39,-0.51 9.86,-0.92l0 -34.81c-1.85,-0.41 -4.62,-0.82 -8.32,-1.23 -3.7,-0.41 -7.09,-0.62 -10.17,-0.62 -4.31,0 -8.37,0.26 -12.17,0.77 -3.8,0.51 -7.14,1.49 -10.01,2.93 -2.88,1.44 -5.13,3.39 -6.78,5.85 -1.64,2.46 -2.46,5.55 -2.46,9.24 0,7.19 2.41,12.17 7.24,14.94 4.83,2.77 11.45,4.16 19.87,4.16zm-3.7 -134.33c13.56,0 24.85,1.54 33.89,4.62 9.04,3.08 16.28,7.5 21.72,13.25 5.44,5.75 9.29,12.73 11.55,20.95 2.26,8.22 3.39,17.36 3.39,27.42l0 95.51c-6.57,1.44 -15.71,3.13 -27.42,5.08 -11.71,1.95 -25.88,2.93 -42.52,2.93 -10.48,0 -19.97,-0.92 -28.5,-2.77 -8.52,-1.85 -15.87,-4.88 -22.03,-9.09 -6.16,-4.21 -10.89,-9.7 -14.17,-16.48 -3.29,-6.78 -4.93,-15.1 -4.93,-24.96 0,-9.45 1.9,-17.46 5.7,-24.03 3.8,-6.57 8.88,-11.81 15.25,-15.71 6.37,-3.9 13.66,-6.73 21.87,-8.47 8.22,-1.75 16.74,-2.62 25.57,-2.62 5.96,0 11.25,0.26 15.87,0.77 4.62,0.51 8.37,1.18 11.25,2l0 -4.31c0,-7.81 -2.36,-14.07 -7.09,-18.79 -4.72,-4.72 -12.94,-7.09 -24.65,-7.09 -7.81,0 -15.51,0.56 -23.11,1.69 -7.6,1.13 -14.17,2.72 -19.72,4.78l-5.85 -36.97c2.67,-0.82 6.01,-1.69 10.01,-2.62 4.01,-0.92 8.37,-1.75 13.09,-2.46 4.72,-0.72 9.7,-1.34 14.94,-1.85 5.24,-0.51 10.53,-0.77 15.87,-0.77z"/>
 </g>
</svg>
