<?xml version="1.0" encoding="UTF-8"?>
<svg version="1.1" xmlns="http://www.w3.org/2000/svg" width="200" height="201">
<path d="M0 0 C0.803237 -0.00570007 1.606474 -0.01140015 2.43405151 -0.01727295 C4.1405912 -0.02674167 5.84714932 -0.03326432 7.55371094 -0.03710938 C10.1481197 -0.0467576 12.74171685 -0.07773816 15.3359375 -0.109375 C16.99478697 -0.11591072 18.6536421 -0.12115895 20.3125 -0.125 C21.46759567 -0.1435202 21.46759567 -0.1435202 22.64602661 -0.16241455 C28.55959997 -0.13833458 33.4267216 0.89972859 38.015625 4.921875 C38.48226562 5.5096875 38.94890625 6.0975 39.4296875 6.703125 C39.91179687 7.2909375 40.39390625 7.87875 40.890625 8.484375 C43.02156889 11.6307351 43.17767514 14.36093439 43.16821289 18.04174805 C43.16809204 19.03621948 43.16797119 20.03069092 43.16784668 21.05529785 C43.16273071 22.097948 43.15761475 23.14059814 43.15234375 24.21484375 C43.15133667 25.17507446 43.15032959 26.13530518 43.14929199 27.12463379 C43.14405801 30.71330967 43.13009675 34.30196853 43.1171875 37.890625 C43.0965625 45.91375 43.0759375 53.936875 43.0546875 62.203125 C25.8946875 62.203125 8.7346875 62.203125 -8.9453125 62.203125 C-8.96625765 54.27422185 -8.98629579 46.34541835 -8.99706268 38.41651154 C-9.00235252 34.72452109 -9.00942624 31.03255345 -9.02075195 27.34057617 C-9.03158412 23.78741669 -9.03759003 20.23427937 -9.04018974 16.68110466 C-9.0420434 15.32266834 -9.04566288 13.96423329 -9.05104256 12.60580635 C-9.05825725 10.70930277 -9.05872059 8.81277707 -9.05883789 6.91625977 C-9.0610585 5.83482193 -9.06327911 4.75338409 -9.06556702 3.63917542 C-8.80842016 -1.56996532 -4.13243046 0.02245221 0 0 Z " fill="#6D5EFE" transform="translate(51.9453125,99.796875)"/>
<path d="M0 0 C0.09943082 5.26524445 0.17173199 10.52993343 0.21972656 15.79589844 C0.23974959 17.58440684 0.26697654 19.37285054 0.30175781 21.16113281 C0.35068955 23.74300162 0.37306165 26.3239995 0.390625 28.90625 C0.41127014 29.69616333 0.43191528 30.48607666 0.45318604 31.29992676 C0.45544345 36.97989533 -0.83551674 41.25023418 -4 46 C-7.79085485 49.60593511 -10.79737022 51.12997675 -16.01245117 51.11352539 C-16.81305466 51.11344986 -17.61365814 51.11337433 -18.43852234 51.11329651 C-19.29798965 51.10813522 -20.15745697 51.10297394 -21.04296875 51.09765625 C-21.9265657 51.0962413 -22.81016266 51.09482635 -23.72053528 51.09336853 C-26.54289128 51.08777069 -29.36516797 51.07521861 -32.1875 51.0625 C-34.10091031 51.05748472 -36.01432187 51.05292186 -37.92773438 51.04882812 C-42.61852014 51.03780197 -47.30924663 51.02053883 -52 51 C-51.0347006 43.81196697 -49.89698051 37.38111859 -46.5 30.9375 C-46.1496167 30.26267578 -45.7992334 29.58785156 -45.43823242 28.89257812 C-37.5913595 14.43355828 -25.34352585 5.65591267 -9.8515625 0.59375 C-6.51536329 -0.10091066 -3.39986046 -0.03798168 0 0 Z " fill="#8435EA" transform="translate(95,39)"/>
<path d="M0 0 C0.79056793 0.0028299 1.58113586 0.00565979 2.3956604 0.00857544 C4.90195334 0.01970295 7.40787895 0.04479324 9.9140625 0.0703125 C11.62108856 0.08035192 13.32812027 0.08947609 15.03515625 0.09765625 C19.2032649 0.11961787 23.37110158 0.15409579 27.5390625 0.1953125 C26.67990249 12.15405091 22.75660637 21.60284417 15.5390625 31.1953125 C14.86423828 32.11763672 14.86423828 32.11763672 14.17578125 33.05859375 C6.9274013 42.26709898 -4.9033068 49.1608232 -16.4609375 51.1953125 C-18.79422421 51.21006226 -21.12765828 51.21120355 -23.4609375 51.1953125 C-23.53532723 45.89342284 -23.58965261 40.59183982 -23.62573242 35.28955078 C-23.6407799 33.48741358 -23.6612228 31.68531277 -23.68725586 29.88330078 C-23.72381771 27.28669229 -23.74070431 24.69056975 -23.75390625 22.09375 C-23.77713203 20.89339615 -23.77713203 20.89339615 -23.80082703 19.66879272 C-23.80229061 14.75771359 -23.16169876 11.45749487 -20.4609375 7.1953125 C-14.17877408 1.05275271 -8.56846143 -0.11691991 0 0 Z " fill="#F89371" transform="translate(128.4609375,99.8046875)"/>
<path d="M0 0 C15.08151341 1.08351172 27.31405674 7.43375333 37.79296875 18.31640625 C45.50169784 27.68967507 51.10065832 38.72807256 51 51 C45.5740282 51.09928585 40.14859159 51.17166467 34.72192383 51.21972656 C32.87808006 51.23977361 31.03429932 51.2670188 29.19067383 51.30175781 C26.5319051 51.35058208 23.87398085 51.37303772 21.21484375 51.390625 C20.39789536 51.41127014 19.58094696 51.43191528 18.73924255 51.45318604 C13.2756408 51.45530154 9.18869633 50.67207356 5 47 C0.21716798 41.61187221 -0.71163884 36.71361063 -0.48828125 29.6875 C-0.48120651 28.83317383 -0.47413177 27.97884766 -0.46684265 27.09863281 C-0.43908893 24.39815745 -0.37639149 21.69983726 -0.3125 19 C-0.28739232 17.15758225 -0.2645835 15.31513166 -0.24414062 13.47265625 C-0.18932539 8.98095381 -0.10319028 4.49084092 0 0 Z " fill="#976CFE" transform="translate(105,39)"/>
</svg>
